<svg id="Layer_1" data-name="Layer 1" xmlns="http://www.w3.org/2000/svg" viewBox="0 0 154.07 136.59"><defs><style>.cls-1{fill:#e7515b;}.cls-2{fill:#5b5a5e;}</style></defs><path class="cls-1" d="M368.58,280.79v10.49a6.81,6.81,0,0,0,2.5,5.27l8.39,6.85v9.45a6.8,6.8,0,0,0,6.8,6.81h31.39a6.8,6.8,0,0,0,6.8-6.81V303.4l8.39-6.85a6.81,6.81,0,0,0,2.5-5.27V280.79Z" transform="translate(-365.47 -214.23)"/><path class="cls-2" d="M417.66,322.77H386.27a9.93,9.93,0,0,1-9.92-9.92v-8L369.11,299a9.86,9.86,0,0,1-3.64-7.68V224.15a9.92,9.92,0,0,1,9.91-9.92h53.17a9.93,9.93,0,0,1,9.92,9.92v67.13a9.87,9.87,0,0,1-3.65,7.68l-7.24,5.91v8A9.93,9.93,0,0,1,417.66,322.77ZM375.38,220.45a3.7,3.7,0,0,0-3.69,3.7v67.13a3.7,3.7,0,0,0,1.36,2.86l8.39,6.84a3.13,3.13,0,0,1,1.14,2.42v9.45a3.7,3.7,0,0,0,3.69,3.7h31.39a3.7,3.7,0,0,0,3.69-3.7V303.4a3.13,3.13,0,0,1,1.14-2.42l8.39-6.84a3.7,3.7,0,0,0,1.36-2.86V224.15a3.7,3.7,0,0,0-3.69-3.7Z" transform="translate(-365.47 -214.23)"/><rect class="cls-2" x="3.11" y="63.45" width="66.77" height="6.23"/><rect class="cls-2" x="14" y="86.06" width="27.13" height="6.23"/><rect class="cls-2" x="50.39" y="86.06" width="8.61" height="6.23"/><rect class="cls-2" x="33.39" y="32.78" width="6.23" height="28.58"/><rect class="cls-2" x="22.21" y="43.96" width="28.58" height="6.23"/><path class="cls-2" d="M447.38,350.81h-33a15.58,15.58,0,0,1-15.57-15.56V319.66h6.23v15.59a9.35,9.35,0,0,0,9.34,9.34h33a9.35,9.35,0,0,0,9.34-9.34V259.46a15.58,15.58,0,0,1,15.57-15.56h16.6a15.58,15.58,0,0,1,15.56,15.56v12.2h-6.22v-12.2a9.35,9.35,0,0,0-9.34-9.34h-16.6a9.35,9.35,0,0,0-9.34,9.34v75.79A15.58,15.58,0,0,1,447.38,350.81Z" transform="translate(-365.47 -214.23)"/><path class="cls-1" d="M513.74,296l-12.4-17.91L488.94,296a15.07,15.07,0,0,0,1.74,19.24h0a15.07,15.07,0,0,0,21.32,0h0A15.09,15.09,0,0,0,513.74,296Z" transform="translate(-365.47 -214.23)"/><path class="cls-2" d="M501.34,322.78a18.2,18.2,0,0,1-15-28.55l12.4-17.92a3.12,3.12,0,0,1,5.12,0l12.4,17.92a18.2,18.2,0,0,1-15,28.55Zm0-39.22-9.84,14.22a12,12,0,1,0,19.68,0Z" transform="translate(-365.47 -214.23)"/></svg>