<svg id="OBJECTS" xmlns="http://www.w3.org/2000/svg" xmlns:xlink="http://www.w3.org/1999/xlink" viewBox="0 0 330.66 379.19"><defs><style>.cls-1{fill:none;}.cls-2{fill:#e28da0;}.cls-11,.cls-3{fill:#262626;}.cls-4{fill:#ffb78f;}.cls-5{fill:#e8505b;}.cls-6{fill:#fff;}.cls-7{fill:#facf61;}.cls-8{clip-path:url(#clip-path);}.cls-9{fill:#ccc;}.cls-10{fill:#f9614c;}.cls-11{font-size:10.48px;font-family:Raleway-Regular, Raleway Regular;}.cls-12{letter-spacing:0em;}.cls-13{letter-spacing:-0.01em;}.cls-14{letter-spacing:0em;}.cls-15{letter-spacing:-0.01em;}.cls-16{letter-spacing:-0.01em;}.cls-17{letter-spacing:-0.01em;}.cls-18{letter-spacing:0em;}.cls-19{letter-spacing:-0.04em;}.cls-20{letter-spacing:-0.05em;}.cls-21{letter-spacing:0em;}.cls-22{letter-spacing:0.01em;}.cls-23{letter-spacing:-0.01em;}.cls-24{letter-spacing:-0.01em;}.cls-25{font-size:30.08px;font-family:Raleway-ExtraBold, Raleway ExtraBold;font-weight:800;}.cls-26{letter-spacing:0.05em;}.cls-27{letter-spacing:0.08em;}.cls-28{letter-spacing:0.06em;}.cls-29{letter-spacing:0.1em;}</style><clipPath id="clip-path" transform="translate(-84.67 -60.4)"><rect class="cls-1" x="215.34" y="174.93" width="66" height="266.5" transform="translate(-80.62 528.24) rotate(-84.92)"/></clipPath></defs><path class="cls-2" d="M374.33,254.87q1.43-5.77,2.58-11.63c.68-3.47,1.26-7.23-.29-10.42-1.31-2.71-4-4.52-6.65-5.88A38.81,38.81,0,0,0,349.16,223c-3.5-7.36-7.18-14.64-10.38-20.06.4-.38.79-.77,1.16-1.17a31.39,31.39,0,0,0,5.11-33.64c-5.12-10.91-16-17.7-25.35-25.26a70.25,70.25,0,0,1-7.65-7.13c3-10.61,3.22-24.11.53-36.23-.16-.74-.34-1.47-.52-2.2s-.44-1.69-.68-2.52l-.15-.46c0-.13-.07-.26-.11-.39q-.15-.53-.33-1l-.09-.29c-.3-.92-.63-1.82-1-2.7-.24-.63-.49-1.24-.75-1.85-3.32-7.75-8.15-14-14.52-17.23a21.52,21.52,0,0,0-2.08-.92h0c-.5-.19-1-.35-1.52-.5-.26-.08-.52-.15-.79-.21a.24.24,0,0,0-.09,0c-.51-.13-1-.24-1.57-.33a22,22,0,0,0-4-.31h-.28a1.89,1.89,0,0,0-.41,0c-12.7.37-20.75,5.7-25.87,12.38-4.82,6.29-7,13.79-8,19.53-.18,1-.31,1.87-.42,2.72a11.15,11.15,0,0,0-5.36,3.46,13.77,13.77,0,0,0-.63,16.85l.27.34c-4.65,3.32-10.67,5.21-16.42,6-9.65,1.34-19.76.7-28.78,4.38-12.93,5.28-21.29,19.35-21.13,33.32a41.87,41.87,0,0,0,7.37,22.74c-3.47,5.37-7.21,11.89-10.7,18.31-.85.18-1.69.4-2.53.65a37.2,37.2,0,0,0-13,6.87c-6.74,5.51-8.66,10-11.53,18.54l-27.81-2.48a12.5,12.5,0,0,0-13.56,11.35l-14,157.14a12.5,12.5,0,0,0,11.34,13.56l284.88,25.33a12.51,12.51,0,0,0,13.56-11.35l14-157.14a12.51,12.51,0,0,0-11.35-13.56Z" transform="translate(-84.67 -60.4)"/><path class="cls-3" d="M243.86,106.8c-3.32,9.16-13.79,13.57-23.44,14.91s-19.77.7-28.79,4.38c-12.93,5.28-21.29,19.35-21.13,33.31s8.17,27.27,19.65,35.22,26.07,10.79,39.95,9.29a233.66,233.66,0,0,0,68.31-3.41c11.31,4.1,26.61,2,34.72-6.88A31.37,31.37,0,0,0,338.24,160c-5.12-10.9-16-17.69-25.34-25.26s-18.35-18.14-17-30.12" transform="translate(-84.67 -60.4)"/><polygon class="cls-4" points="149.88 109.48 153.84 128.35 201.26 127.32 196.19 112.61 193.59 78.51 161.76 55.82 149.88 109.48"/><path class="cls-3" d="M259.24,138A40,40,0,0,0,280,161.25L278.34,140l-9.49-6.81C265.63,134.77,262.53,136.38,259.24,138Z" transform="translate(-84.67 -60.4)"/><path class="cls-4" d="M297.1,142.32c-19.46,17.84-39.11-1.56-39.11-1.56l-15.08-37.33-.8-2v-.38c0-.2,0-.47,0-.79,0-.56.05-1.29.1-2.18,0-.67.12-1.44.22-2.27a.25.25,0,0,0,0-.08l0-.29c.11-1,.26-2,.46-3.1,1-5.75,3.22-13.25,8-19.53,5.12-6.68,13.18-12,25.88-12.39h.69a21,21,0,0,1,4,.31c.54.08,1.06.19,1.58.32l.09,0,.79.21c.51.15,1,.31,1.51.5h0a21.63,21.63,0,0,1,2.09.91c6.36,3.2,11.2,9.48,14.51,17.24.26.6.51,1.22.75,1.84.36.88.68,1.79,1,2.71l.09.28c.11.34.22.68.32,1l.12.4c.05.15.1.3.14.46.24.83.47,1.66.68,2.51s.36,1.47.52,2.21C310,110.53,307.06,133.16,297.1,142.32Z" transform="translate(-84.67 -60.4)"/><path class="cls-3" d="M287.17,121.51l-.05-2.25a2.12,2.12,0,0,0,1.57-.73,2.15,2.15,0,0,0,.53-1.65l-1.53-15.06,2.24-.23,1.53,15.07a4.42,4.42,0,0,1-4.29,4.85Z" transform="translate(-84.67 -60.4)"/><path class="cls-3" d="M277.58,103.4c0,1.14-.62,2.09-1.44,2.1s-1.5-.89-1.52-2,.62-2.09,1.43-2.11S277.56,102.25,277.58,103.4Z" transform="translate(-84.67 -60.4)"/><path class="cls-3" d="M300.11,102.91c0,1.14-.62,2.09-1.44,2.11s-1.5-.9-1.53-2,.62-2.09,1.44-2.1S300.08,101.76,300.11,102.91Z" transform="translate(-84.67 -60.4)"/><path class="cls-3" d="M282.84,126.94a5.31,5.31,0,0,1-5-6.14l2.22.35a3.1,3.1,0,0,0,.66,2.42,3.14,3.14,0,0,0,2.25,1.13Z" transform="translate(-84.67 -60.4)"/><path class="cls-3" d="M272.26,93.81a6,6,0,0,0-1.77.73c-.5.33-.85.82-.75,1.25.15.72,1.35,1,2.41,1a19.12,19.12,0,0,0,6.9-.89c.78-.26,1.62-.63,1.85-1.19.55-1.3-1.85-1.65-2.83-1.69A19.48,19.48,0,0,0,272.26,93.81Z" transform="translate(-84.67 -60.4)"/><path class="cls-3" d="M295.92,92.67a5.2,5.2,0,0,0-1.62.39,1.2,1.2,0,0,0-.79,1c.06.68,1.07,1.1,2,1.32a16.16,16.16,0,0,0,6.08.23c.71-.12,1.48-.33,1.74-.8.61-1.1-1.43-1.77-2.27-2A16.3,16.3,0,0,0,295.92,92.67Z" transform="translate(-84.67 -60.4)"/><path class="cls-5" d="M356.16,245.73l-202.94-18,0,0c.17-.36,13.56-28.26,24.41-45.14.36-.57.72-1.12,1.07-1.66,3.31-5,6.32-8.81,8.56-10.29C196,164.79,235,168,235,168c29.46,28.31,45.84,4.82,45.84,4.82s2.56.44,6.49,1.23c1.78.36,3.85.79,6.08,1.29,11.53,2.54,27.59,6.77,32.8,11.46,5.42,4.87,16.19,27.7,23.22,43.48.39.86.76,1.7,1.12,2.51C353.9,240.33,356.16,245.73,356.16,245.73Z" transform="translate(-84.67 -60.4)"/><path class="cls-6" d="M277.29,115.7a6.85,6.85,0,0,1-.79,0A8.75,8.75,0,1,1,284,101.33a8.75,8.75,0,0,1-6.69,14.37Zm0-15.25a6.48,6.48,0,0,0-6.46,5.92,6.5,6.5,0,1,0,12.94,1.15h0a6.44,6.44,0,0,0-1.48-4.74,6.51,6.51,0,0,0-4.41-2.31Z" transform="translate(-84.67 -60.4)"/><path class="cls-6" d="M300.71,114.77c-.26,0-.53,0-.79,0a8.87,8.87,0,1,1,.79,0Zm0-15.25a6.51,6.51,0,1,0,6.49,7.08h0a6.5,6.5,0,0,0-5.9-7A5.83,5.83,0,0,0,300.68,99.52Z" transform="translate(-84.67 -60.4)"/><rect class="cls-6" x="284.82" y="105.4" width="8.18" height="2.25" transform="translate(-87.41 -52.66) rotate(-1.53)"/><rect class="cls-6" x="257.19" y="86.96" width="2.25" height="26.07" transform="translate(-40.39 215.42) rotate(-60.57)"/><path class="cls-3" d="M302.16,79.94a21,21,0,0,1-18.57-16.4,39.62,39.62,0,0,1-41.12,32.19l0-.29c.11-1,.26-2,.46-3.1,1-5.75,3.22-13.25,8-19.53,5.12-6.68,13.18-12,25.88-12.39h.69a21,21,0,0,1,4,.31c.54.08,1.06.19,1.58.32l.09,0,.79.21c.51.15,1,.31,1.51.5h0a21.63,21.63,0,0,1,2.09.91C294,65.9,298.85,72.18,302.16,79.94Z" transform="translate(-84.67 -60.4)"/><path class="cls-4" d="M251,97.92A7.54,7.54,0,0,0,244,94.79a10.64,10.64,0,0,0-6.85,3.72,13.36,13.36,0,0,0,15.75,20.89" transform="translate(-84.67 -60.4)"/><path class="cls-3" d="M242.6,112.48a13.89,13.89,0,0,1,2-8.5l-3.53.16L241,101.9l5.93-.28.88,1.89a11.53,11.53,0,0,0-3,8.75Z" transform="translate(-84.67 -60.4)"/><path class="cls-5" d="M249,236.2l-95.8-8.52,0,0c.17-.36,13.56-28.26,24.41-45.14.36-.57.72-1.12,1.07-1.66a27.77,27.77,0,0,1,16.75,5.48c5,3.73,8.84,9.1,14.19,12.12,8.44,4.76,19,2.88,27.64,7.21,7.48,3.75,12.7,12.29,13,21.33A26.65,26.65,0,0,1,249,236.2Z" transform="translate(-84.67 -60.4)"/><path class="cls-5" d="M350.56,232.78a21,21,0,0,1-31.64-10.91c-1.39-4.23-1.4-8.75-2-13.15s-2-9-5.35-11.88c-2.25-1.92-5.13-2.88-7.68-4.37a21.45,21.45,0,0,1-10-13.62,21,21,0,0,1-.47-3.52c11.53,2.54,27.59,6.77,32.8,11.46,5.42,4.87,16.19,27.7,23.22,43.48C349.83,231.13,350.2,232,350.56,232.78Z" transform="translate(-84.67 -60.4)"/><rect class="cls-6" x="155.22" y="172.23" width="182.76" height="311" rx="12.5" transform="translate(-186.35 483.92) rotate(-84.92)"/><rect class="cls-7" x="215.33" y="174.93" width="66" height="266.5" rx="12.5" transform="translate(-165.3 467.84) rotate(-84.92)"/><g class="cls-8"><path class="cls-6" d="M173.42,362.84a113.5,113.5,0,0,1-1.91-21.53l-2.14,1.83c-10.45,8.78-19.49,11.63-26.88,8.49-10-4.27-11.85-17.12-12.05-24.4a98.83,98.83,0,0,1,33.47-76.18l1.48,1.69a96.62,96.62,0,0,0-32.7,74.43,38.37,38.37,0,0,0,2.53,13.39c1.83,4.45,4.57,7.47,8.15,9a13.26,13.26,0,0,0,5.29,1.06c5.52,0,12-3.07,19.26-9.19,1.23-1,2.44-2.09,3.65-3.15.91-28.22,12-56.2,31.21-76.89,2.68-2.88,5.67-5.73,9.42-7.16s8.71-1.28,11.83,2.06c3.49,3.73,3.33,9.59-.49,17.43a213.92,213.92,0,0,1-49.75,65.6,111.37,111.37,0,0,0,1.85,23.12Zm43.34-107.19a10.61,10.61,0,0,0-3.76.68c-3.14,1.18-5.69,3.49-8.57,6.58-18.37,19.77-29.16,46.32-30.52,73.27a211.84,211.84,0,0,0,47.61-63.46c3.36-6.91,3.66-11.93.87-14.9A7.57,7.57,0,0,0,216.76,255.65Z" transform="translate(-84.67 -60.4)"/><path class="cls-6" d="M385.56,378.16c-30.5-27.43-45.19-71.17-37.42-111.44l2.21.42c-7.62,39.52,6.79,82.44,36.71,109.34Z" transform="translate(-84.67 -60.4)"/><path class="cls-6" d="M275.46,365.48a16.11,16.11,0,0,1-9.67-3.33,16.86,16.86,0,0,1-5.81-7.71c-2-5.61-.78-11.53.79-17.11a152,152,0,0,1,25.86-51,175.05,175.05,0,0,1,24.15-25.74,15.06,15.06,0,0,0-3.17-1.9c-6.05-2.68-14.06-1.64-23.81,3.09a113.12,113.12,0,0,0-45.29,39c-10.83,16.38-16.16,34.61-15.42,52.72l-2.25.1c-.76-18.59,4.7-37.29,15.8-54.06a115.38,115.38,0,0,1,46.18-39.79c10.37-5,19-6.08,25.7-3.12a17.31,17.31,0,0,1,4,2.47A189.55,189.55,0,0,1,331,245.18l1.24,1.88a186.64,186.64,0,0,0-18.14,13.58c3.33,3.63,5.34,8.95,6,15.89a97.76,97.76,0,0,1-5.42,42.59,108,108,0,0,1-23.29,37.77c-3.74,4-8.92,8.55-15.88,8.59Zm37-103.39a172.61,172.61,0,0,0-24,25.58,150,150,0,0,0-25.49,50.27c-1.37,4.86-2.67,10.49-.82,15.76,1.62,4.63,6.85,9.53,13.35,9.53h.08c6.11,0,10.83-4.23,14.26-7.88a105.75,105.75,0,0,0,22.81-37,95.46,95.46,0,0,0,5.3-41.61C317.28,270.19,315.48,265.34,312.45,262.09Z" transform="translate(-84.67 -60.4)"/></g><path class="cls-9" d="M151.93,241.88c.58,1.62,1.68,3.43,3.4,3.42a3.11,3.11,0,0,0,2.49-1.66,75.9,75.9,0,0,0,1.68-7.79,13.6,13.6,0,0,0,1.55,7.19,7,7,0,0,0,1.95,2.41,3.53,3.53,0,0,0,2.95.61,3.64,3.64,0,0,0,2-1.6,8.12,8.12,0,0,0,1-2.36c.57-2.18,1.08-4.42,1.55-6.7a13.48,13.48,0,0,0,1.76,7.16,6.81,6.81,0,0,0,2,2.34,3.51,3.51,0,0,0,3,.53,3.75,3.75,0,0,0,1.91-1.65,8.24,8.24,0,0,0,1-2.39c.51-2.23,1-4.46,1.37-6.7a13.11,13.11,0,0,0,.43,4.8,4,4,0,0,0,7.43,1.14,12.87,12.87,0,0,0,1.75-4.3c.46-1.72.91-3.44,1.33-5.16l-42-3.73C149.73,232.1,150.9,239,151.93,241.88Z" transform="translate(-84.67 -60.4)"/><path class="cls-4" d="M199.5,209.55c-1.31-2.72-4-4.53-6.65-5.89a38.83,38.83,0,0,0-28.2-2.56A37.41,37.41,0,0,0,151.59,208c-6.74,5.52-8.65,10-11.53,18.54l15.21,1.36c-.73,4.66.45,11.58,1.47,14.44.59,1.62,1.69,3.44,3.41,3.42a3.06,3.06,0,0,0,2.48-1.66,74.55,74.55,0,0,0,1.69-7.79,13.5,13.5,0,0,0,1.55,7.19,6.84,6.84,0,0,0,1.95,2.41,3.52,3.52,0,0,0,3,.61,3.64,3.64,0,0,0,2-1.6,8.4,8.4,0,0,0,1-2.36c.57-2.17,1.07-4.42,1.55-6.7a13.48,13.48,0,0,0,1.76,7.16,6.78,6.78,0,0,0,2,2.34,3.51,3.51,0,0,0,3,.53,3.63,3.63,0,0,0,1.91-1.65,8,8,0,0,0,1-2.39c.52-2.23,1-4.46,1.38-6.7a13.11,13.11,0,0,0,.43,4.8,4,4,0,0,0,7.43,1.14,12.87,12.87,0,0,0,1.75-4.3q2.24-8.32,3.9-16.8C200.47,216.49,201.05,212.73,199.5,209.55Z" transform="translate(-84.67 -60.4)"/><path class="cls-3" d="M160.16,246.85l0-2.25a1.93,1.93,0,0,0,1.5-1c.38-1,1.85-8.64,4.35-22.71l2.22.39c-3.31,18.59-4.22,22.73-4.6,23.4A4.16,4.16,0,0,1,160.16,246.85Zm1.5-3.34Z" transform="translate(-84.67 -60.4)"/><path class="cls-3" d="M171.09,247.56l-.64-2.15a2.59,2.59,0,0,0,1.33-1.12,7.08,7.08,0,0,0,.88-2c.87-3.32,1.6-6.89,2.3-10.34.75-3.67,1.52-7.46,2.48-11l2.17.58c-.94,3.5-1.7,7.26-2.45,10.89-.71,3.48-1.44,7.08-2.32,10.46a9.38,9.38,0,0,1-1.16,2.68A4.76,4.76,0,0,1,171.09,247.56Z" transform="translate(-84.67 -60.4)"/><path class="cls-3" d="M182.39,246.93l-.7-2.14a2.58,2.58,0,0,0,1.3-1.16,7.1,7.1,0,0,0,.82-2.06c.77-3.34,1.39-6.75,2-10,.64-3.53,1.3-7.18,2.16-10.77l2.19.52c-.84,3.53-1.5,7.15-2.14,10.65-.6,3.33-1.23,6.77-2,10.15a9.21,9.21,0,0,1-1.08,2.72A4.82,4.82,0,0,1,182.39,246.93Z" transform="translate(-84.67 -60.4)"/><path class="cls-9" d="M320.76,242.58c-.7,4.66.47,11.53,1.49,14.37.58,1.62,1.68,3.44,3.4,3.42a3.1,3.1,0,0,0,2.49-1.65,75.9,75.9,0,0,0,1.68-7.79,13.51,13.51,0,0,0,1.56,7.19,6.69,6.69,0,0,0,1.94,2.4,3.46,3.46,0,0,0,2.95.61,3.62,3.62,0,0,0,2-1.59,8.24,8.24,0,0,0,1-2.36c.57-2.18,1.08-4.43,1.56-6.71a13.38,13.38,0,0,0,1.75,7.16,6.75,6.75,0,0,0,2,2.35,3.47,3.47,0,0,0,3,.52,3.68,3.68,0,0,0,1.91-1.64,8.35,8.35,0,0,0,1-2.39c.51-2.23,1-4.47,1.37-6.7a13.07,13.07,0,0,0,.43,4.79,4,4,0,0,0,7.43,1.14,12.58,12.58,0,0,0,1.75-4.3c.46-1.69.89-3.39,1.31-5.09Z" transform="translate(-84.67 -60.4)"/><path class="cls-4" d="M369.82,224.69c-1.32-2.71-4-4.52-6.66-5.88a38.83,38.83,0,0,0-28.2-2.57,37.52,37.52,0,0,0-13.06,6.88c-6.73,5.51-8.65,10-11.52,18.54l15.2,1.35c-.72,4.66.45,11.58,1.48,14.44.58,1.62,1.68,3.44,3.4,3.42a3.08,3.08,0,0,0,2.49-1.65,77.35,77.35,0,0,0,1.68-7.79,13.52,13.52,0,0,0,1.55,7.19,7,7,0,0,0,1.95,2.4,3.51,3.51,0,0,0,3,.61,3.68,3.68,0,0,0,2-1.59,8.24,8.24,0,0,0,1-2.36c.57-2.18,1.07-4.43,1.55-6.71a13.57,13.57,0,0,0,1.76,7.16,6.92,6.92,0,0,0,2,2.34,3.44,3.44,0,0,0,3,.53,3.7,3.7,0,0,0,1.91-1.65,8.41,8.41,0,0,0,1-2.39c.51-2.22,1-4.46,1.38-6.7a12.89,12.89,0,0,0,.42,4.8,4,4,0,0,0,7.43,1.14,12.66,12.66,0,0,0,1.75-4.3q2.24-8.33,3.9-16.79C370.79,231.64,371.36,227.87,369.82,224.69Z" transform="translate(-84.67 -60.4)"/><path class="cls-3" d="M330.47,262l0-2.25a2,2,0,0,0,1.5-1.06c.39-1,1.85-8.64,4.36-22.71l2.21.39c-3.31,18.59-4.21,22.74-4.6,23.41A4.19,4.19,0,0,1,330.47,262Zm1.5-3.34Z" transform="translate(-84.67 -60.4)"/><path class="cls-3" d="M341.41,262.71l-.65-2.16a2.51,2.51,0,0,0,1.34-1.12,6.94,6.94,0,0,0,.87-2c.87-3.32,1.6-6.89,2.3-10.34.75-3.66,1.53-7.45,2.48-11l2.17.58c-.93,3.49-1.7,7.25-2.44,10.88-.71,3.48-1.45,7.08-2.33,10.46a9.44,9.44,0,0,1-1.16,2.69A4.78,4.78,0,0,1,341.41,262.71Z" transform="translate(-84.67 -60.4)"/><path class="cls-3" d="M352.71,262.07l-.71-2.14a2.51,2.51,0,0,0,1.3-1.16,6.83,6.83,0,0,0,.82-2.06c.77-3.33,1.39-6.75,2-10,.65-3.53,1.31-7.18,2.16-10.77l2.19.52c-.84,3.54-1.5,7.15-2.13,10.65-.61,3.33-1.23,6.77-2,10.16a9.26,9.26,0,0,1-1.08,2.71A4.8,4.8,0,0,1,352.71,262.07Z" transform="translate(-84.67 -60.4)"/><path class="cls-10" d="M277,377.22a7,7,0,1,0,6.34,7.58A7,7,0,0,0,277,377.22Zm2.77,10.35a2.57,2.57,0,0,1-1.75.65,2.94,2.94,0,0,1-1.41-.4,6.73,6.73,0,0,1-1.47-1.12l-.79-.84a10.09,10.09,0,0,1-1.28-1.95,3.89,3.89,0,0,1-.42-1.71,2.49,2.49,0,0,1,.76-1.75,2,2,0,0,1,.36-.3.67.67,0,0,1,.9.25l.7,1.19a.91.91,0,0,1-.37,1.29l-.43.24a.24.24,0,0,0-.1.1c-.07-.12-.14-.23-.2-.35l-.07-.13a.2.2,0,0,0-.27-.07.18.18,0,0,0-.07.26l.07.13c.2.36.41.73.64,1.09a10,10,0,0,0,1.67,2c.24.22.5.43.75.64a.21.21,0,0,0,.28,0,.2.2,0,0,0,0-.28l-.27-.21a.26.26,0,0,0,.14-.1l.33-.4a.9.9,0,0,1,1.31-.1l1,.85A.69.69,0,0,1,279.74,387.57Z" transform="translate(-84.67 -60.4)"/><path class="cls-10" d="M278.52,359.77a7,7,0,1,0,6.34,7.58A7,7,0,0,0,278.52,359.77Zm-3.34,3.67,6,.53a.6.6,0,0,1,.32.12L278,367a.21.21,0,0,1-.3,0l-2.89-3.45A.65.65,0,0,1,275.18,363.44Zm6.15,6a.61.61,0,0,1-.08.27l-1.48-1.76a.18.18,0,0,0-.27,0,.19.19,0,0,0,0,.28L281,370a.65.65,0,0,1-.34.06l-6-.53a.6.6,0,0,1-.32-.12l1.78-1.48a.2.2,0,0,0,0-.28.19.19,0,0,0-.27,0l-1.77,1.47a.64.64,0,0,1,0-.28l.42-4.75a.62.62,0,0,1,.09-.27l2.87,3.44a.61.61,0,0,0,.85.07l3.44-2.87a.64.64,0,0,1,0,.28Z" transform="translate(-84.67 -60.4)"/><text class="cls-11" transform="translate(205.9 310.82) rotate(5.08)">don<tspan class="cls-12" x="17.48" y="0">a</tspan><tspan class="cls-13" x="22.49" y="0">t</tspan><tspan class="cls-14" x="25.9" y="0">eli</tspan><tspan class="cls-15" x="36.08" y="0">f</tspan><tspan class="cls-14" x="39" y="0">e@</tspan><tspan class="cls-16" x="51.98" y="0">g</tspan><tspan x="57.78" y="0">mai</tspan><tspan class="cls-17" x="74.02" y="0">l</tspan><tspan class="cls-18" x="76.39" y="0">.</tspan><tspan class="cls-16" x="78.56" y="0">c</tspan><tspan class="cls-18" x="83.2" y="0">om</tspan></text><text class="cls-11" transform="translate(204.35 328.27) rotate(5.08)">123-456-789</text><path class="cls-10" d="M119.46,350.9a1.68,1.68,0,0,1-1.82,1.53.19.19,0,0,1-.18-.21.2.2,0,0,1,.21-.18,1.29,1.29,0,1,0-.85-.43.19.19,0,1,1-.29.25,1.65,1.65,0,0,1-.42-1.25,1.68,1.68,0,1,1,3.35.29Z" transform="translate(-84.67 -60.4)"/><path class="cls-5" d="M118.25,345.52a7,7,0,1,0,6.34,7.58A7,7,0,0,0,118.25,345.52Zm-1,11.52s-2.42-5-2.28-6.54a2.85,2.85,0,1,1,5.67.51C120.48,352.57,117.23,357,117.23,357Z" transform="translate(-84.67 -60.4)"/><path class="cls-10" d="M116.7,363a7,7,0,1,0,6.34,7.58A7,7,0,0,0,116.7,363Zm1.51,4.19a3.41,3.41,0,0,1,1,1.22,9.21,9.21,0,0,1-1.13.11Zm-3.74-.33-.11,1.32c-.24,0-.46-.11-.67-.17a.19.19,0,0,0-.11.37,7.25,7.25,0,0,0,.74.19l-.1,1.16a8.44,8.44,0,0,1-1.56-.5A3.49,3.49,0,0,1,114.47,366.83Zm1.11,6.55a3.5,3.5,0,0,1-3-3.76v0a9.82,9.82,0,0,0,1.58.49l-.1,1.16-.58-.15a.19.19,0,0,0-.11.37l.66.17,0,.57a.19.19,0,1,0,.38,0l.05-.52a12.72,12.72,0,0,0,1.28.18Zm.17-1.86c-.44,0-.87-.11-1.29-.19l.11-1.16c.42.08.85.15,1.28.19Zm.13-1.55a11.9,11.9,0,0,1-1.28-.19l.1-1.16c.42.08.85.15,1.29.19Zm.41-2.36a.19.19,0,0,0-.21.17l-.06.64a10.37,10.37,0,0,1-1.28-.19l.14-1.58a3.32,3.32,0,0,1,1.51-.2,3.48,3.48,0,0,1,1.46.46l-.15,1.59a11.46,11.46,0,0,1-1.29,0l.06-.64A.2.2,0,0,0,116.29,367.61Zm0,2.4.1-1.16c.44,0,.87,0,1.3,0l-.1,1.16C117.15,370.06,116.71,370,116.27,370Zm1.26.43-.1,1.16c-.41,0-.84,0-1.3-.05l.11-1.16C116.68,370.43,117.11,370.44,117.53,370.44Zm-1.56,3,.13-1.48c.43,0,.87.05,1.29,0l0,.53a.2.2,0,0,0,.17.21.19.19,0,0,0,.21-.18l0-.57a8.91,8.91,0,0,0,1.21-.11A3.49,3.49,0,0,1,116,373.42Zm3.27-2a9.22,9.22,0,0,1-1.42.17l.1-1.16c.39,0,.76-.05,1.11-.1a.2.2,0,0,0,.16-.22A.19.19,0,0,0,119,370c-.32,0-.66.07-1,.09l.1-1.16a10.37,10.37,0,0,0,1.31-.13,3.35,3.35,0,0,1,.19,1.49A3.56,3.56,0,0,1,119.24,371.42Z" transform="translate(-84.67 -60.4)"/><text class="cls-11" transform="translate(45.63 296.57) rotate(5.08)">V<tspan class="cls-19" x="5.85" y="0"> </tspan><tspan class="cls-14" x="7.69" y="0">V Naga</tspan><tspan class="cls-20" x="38.63" y="0">r</tspan><tspan class="cls-18" x="41.5" y="0">, </tspan><tspan class="cls-21" x="45.89" y="0">A</tspan><tspan x="52.27" y="0">nan</tspan><tspan class="cls-17" x="68.96" y="0">d</tspan><tspan x="74.77" y="0">, </tspan><tspan class="cls-22" x="79.16" y="0">I</tspan><tspan class="cls-14" x="81.77" y="0">ndia</tspan></text><text class="cls-11" transform="translate(44.08 314.02) rotate(5.08)">don<tspan class="cls-12" x="17.48" y="0">a</tspan><tspan class="cls-13" x="22.49" y="0">t</tspan><tspan class="cls-14" x="25.9" y="0">eli</tspan><tspan class="cls-15" x="36.08" y="0">f</tspan><tspan class="cls-23" x="39" y="0">e</tspan><tspan x="44.13" y="0">.o</tspan><tspan class="cls-24" x="52.05" y="0">r</tspan><tspan x="55.4" y="0">gv</tspan></text><text class="cls-25" transform="translate(67.33 250.95) rotate(5.08)"><tspan class="cls-26">C</tspan><tspan class="cls-27" x="19.07" y="0">ON</tspan><tspan x="64.09" y="0">T</tspan><tspan class="cls-28" x="79.04" y="0">A</tspan><tspan class="cls-29" x="99.25" y="0">C</tspan><tspan class="cls-27" x="119.79" y="0">T US!</tspan></text></svg>