<svg id="Layer_1" data-name="Layer 1" xmlns="http://www.w3.org/2000/svg" viewBox="0 0 90.16 149.42"><defs><style>.cls-1{fill:#5b5a5e;}.cls-2{fill:#e7515b;}</style></defs><path class="cls-1" d="M384.44,392.32H352.7a3.11,3.11,0,0,1-3.11-3.11V369.09a49.12,49.12,0,0,1-23.44-41.84v-30a3.12,3.12,0,0,1,3.12-3.12,20.15,20.15,0,0,1,20.12,20.13h-6.23a13.92,13.92,0,0,0-10.78-13.55v26.56a42.87,42.87,0,0,0,21.85,37.34,3.12,3.12,0,0,1,1.59,2.72V386.1h28.62Z" transform="translate(-326.15 -242.9)"/><path class="cls-1" d="M403.12,392.32h-9.55V386.1H400V367.31a3.17,3.17,0,0,1,.73-2,39.39,39.39,0,0,0,9.35-25.46V283.89a5.47,5.47,0,0,0-5.09-5.6,5.14,5.14,0,0,0-3.82,1.48,5.22,5.22,0,0,0-1.6,3.77,3.11,3.11,0,1,1-6.22,0V266.1a5.48,5.48,0,0,0-5.09-5.6,5.09,5.09,0,0,0-3.82,1.48,5.2,5.2,0,0,0-1.6,3.77,3.11,3.11,0,0,1-6.22,0V254.38a5.26,5.26,0,0,0-5.42-5.25,5.48,5.48,0,0,0-5.09,5.6v11a3.12,3.12,0,0,1-6.23,0A5.19,5.19,0,0,0,358.3,262a5.12,5.12,0,0,0-3.82-1.48,5.47,5.47,0,0,0-5.09,5.6V328h-6.23V266.1a11.75,11.75,0,0,1,11.13-11.83,11.43,11.43,0,0,1,5.6,1.26v-.8A11.74,11.74,0,0,1,371,242.91a11.46,11.46,0,0,1,11.83,11.47v1.15a11.43,11.43,0,0,1,5.6-1.26,11.75,11.75,0,0,1,11.13,11.83v7.22a11.56,11.56,0,0,1,5.61-1.26,11.75,11.75,0,0,1,11.12,11.83v55.94a45.67,45.67,0,0,1-10.08,28.6v20.78A3.11,3.11,0,0,1,403.12,392.32Z" transform="translate(-326.15 -242.9)"/><rect class="cls-1" x="33.74" y="22.84" width="6.23" height="45.17"/><rect class="cls-1" x="50.47" y="22.84" width="6.23" height="45.17"/><rect class="cls-1" x="67.2" y="40.63" width="6.23" height="27.38"/><path class="cls-2" d="M393.91,306.47h0a16.18,16.18,0,0,0-22.88,0h0l0-.05A16.18,16.18,0,0,0,348.1,329.3L371,352.23l22.88-22.88A16.18,16.18,0,0,0,393.91,306.47Z" transform="translate(-326.15 -242.9)"/><path class="cls-1" d="M371,355.34a3.07,3.07,0,0,1-2.2-.91L345.9,331.5A19.29,19.29,0,0,1,371,302.36a19.29,19.29,0,0,1,25.07,29.19l-22.88,22.88A3.1,3.1,0,0,1,371,355.34Zm-11.49-50.55a13.07,13.07,0,0,0-9.24,22.31L371,347.83l20.68-20.68a13.07,13.07,0,1,0-18.48-18.48,3.12,3.12,0,0,1-4.4,0A13,13,0,0,0,359.54,304.79Z" transform="translate(-326.15 -242.9)"/></svg>